<svg xmlns="http://www.w3.org/2000/svg" width="980" height="560" viewBox="0 0 980 560">
<rect width="100%" height="100%" fill="#FFFFFF"/>
<text x="82" y="34" font-family="Arial, sans-serif" font-size="20" font-weight="700" fill="#263238">BNEF Recycling Outlook: Production Scrap vs. EOL/Other Availability to 2050</text>
<line x1="82" y1="484.0" x2="946" y2="484.0" stroke="#D6D8DC" stroke-width="1"/>
<text x="70" y="488.0" font-family="Arial, sans-serif" font-size="12" fill="#5F6B73" text-anchor="end">0</text>
<line x1="82" y1="399.6" x2="946" y2="399.6" stroke="#D6D8DC" stroke-width="1"/>
<text x="70" y="403.6" font-family="Arial, sans-serif" font-size="12" fill="#5F6B73" text-anchor="end">377</text>
<line x1="82" y1="315.2" x2="946" y2="315.2" stroke="#D6D8DC" stroke-width="1"/>
<text x="70" y="319.2" font-family="Arial, sans-serif" font-size="12" fill="#5F6B73" text-anchor="end">753</text>
<line x1="82" y1="230.8" x2="946" y2="230.8" stroke="#D6D8DC" stroke-width="1"/>
<text x="70" y="234.8" font-family="Arial, sans-serif" font-size="12" fill="#5F6B73" text-anchor="end">1130</text>
<line x1="82" y1="146.4" x2="946" y2="146.4" stroke="#D6D8DC" stroke-width="1"/>
<text x="70" y="150.4" font-family="Arial, sans-serif" font-size="12" fill="#5F6B73" text-anchor="end">1506</text>
<line x1="82" y1="62.0" x2="946" y2="62.0" stroke="#D6D8DC" stroke-width="1"/>
<text x="70" y="66.0" font-family="Arial, sans-serif" font-size="12" fill="#5F6B73" text-anchor="end">1883</text>
<line x1="82.0" y1="484" x2="82.0" y2="490" stroke="#455A64" stroke-width="1"/>
<text x="82.0" y="510" font-family="Arial, sans-serif" font-size="12" fill="#455A64" text-anchor="middle">2015</text>
<line x1="205.4" y1="484" x2="205.4" y2="490" stroke="#455A64" stroke-width="1"/>
<text x="205.4" y="510" font-family="Arial, sans-serif" font-size="12" fill="#455A64" text-anchor="middle">2020</text>
<line x1="328.9" y1="484" x2="328.9" y2="490" stroke="#455A64" stroke-width="1"/>
<text x="328.9" y="510" font-family="Arial, sans-serif" font-size="12" fill="#455A64" text-anchor="middle">2025</text>
<line x1="452.3" y1="484" x2="452.3" y2="490" stroke="#455A64" stroke-width="1"/>
<text x="452.3" y="510" font-family="Arial, sans-serif" font-size="12" fill="#455A64" text-anchor="middle">2030</text>
<line x1="575.7" y1="484" x2="575.7" y2="490" stroke="#455A64" stroke-width="1"/>
<text x="575.7" y="510" font-family="Arial, sans-serif" font-size="12" fill="#455A64" text-anchor="middle">2035</text>
<line x1="699.1" y1="484" x2="699.1" y2="490" stroke="#455A64" stroke-width="1"/>
<text x="699.1" y="510" font-family="Arial, sans-serif" font-size="12" fill="#455A64" text-anchor="middle">2040</text>
<line x1="822.6" y1="484" x2="822.6" y2="490" stroke="#455A64" stroke-width="1"/>
<text x="822.6" y="510" font-family="Arial, sans-serif" font-size="12" fill="#455A64" text-anchor="middle">2045</text>
<line x1="946.0" y1="484" x2="946.0" y2="490" stroke="#455A64" stroke-width="1"/>
<text x="946.0" y="510" font-family="Arial, sans-serif" font-size="12" fill="#455A64" text-anchor="middle">2050</text>
<line x1="82" y1="484" x2="946" y2="484" stroke="#455A64" stroke-width="1.2"/>
<line x1="82" y1="62" x2="82" y2="484" stroke="#455A64" stroke-width="1.2"/>
<polyline points="82.0,483.8 106.7,483.2 131.4,482.8 156.1,482.4 180.7,481.2 205.4,480.9 230.1,480.1 254.8,476.3 279.5,471.4 304.2,466.5 328.9,461.4 353.5,454.3 378.2,451.4 402.9,445.4 427.6,439.8 452.3,438.9 477.0,433.9 501.7,432.7 526.3,434.6 551.0,431.5 575.7,427.7 600.4,425.4 625.1,423.2 649.8,421.0 674.5,418.7 699.1,416.5 723.8,414.2 748.5,412.0 773.2,409.8 797.9,407.5 822.6,405.3 847.3,403.0 871.9,400.8 896.6,398.5 921.3,396.3 946.0,394.1" fill="none" stroke="#2A9D8F" stroke-width="3.2" stroke-linejoin="round" stroke-linecap="round"/>
<polyline points="82.0,484.0 106.7,484.0 131.4,484.0 156.1,484.0 180.7,483.9 205.4,483.6 230.1,483.1 254.8,482.1 279.5,480.8 304.2,479.4 328.9,478.0 353.5,476.1 378.2,473.0 402.9,468.7 427.6,463.3 452.3,455.4 477.0,444.4 501.7,431.7 526.3,418.0 551.0,398.3 575.7,368.4 600.4,351.0 625.1,333.5 649.8,316.1 674.5,298.7 699.1,281.3 723.8,263.9 748.5,246.5 773.2,229.1 797.9,211.7 822.6,194.3 847.3,176.9 871.9,159.4 896.6,142.0 921.3,124.6 946.0,107.2" fill="none" stroke="#D1495B" stroke-width="3.2" stroke-linejoin="round" stroke-linecap="round"/>
<text x="455" y="538" font-family="Arial, sans-serif" font-size="14" fill="#263238">Year</text>
<text x="22" y="330" font-family="Arial, sans-serif" font-size="14" fill="#263238" transform="rotate(-90 22,330)">Battery recycling availability (GWh)</text>
<line x1="604" y1="78" x2="654" y2="78" stroke="#2A9D8F" stroke-width="3.2" stroke-linecap="round"/>
<text x="664" y="82" font-family="Arial, sans-serif" font-size="13" fill="#263238">Production scrap</text>
<line x1="604" y1="102" x2="654" y2="102" stroke="#D1495B" stroke-width="3.2" stroke-linecap="round"/>
<text x="664" y="106" font-family="Arial, sans-serif" font-size="13" fill="#263238">EOL and other availability</text>
</svg>