<svg xmlns="http://www.w3.org/2000/svg" width="1180" height="760" viewBox="0 0 1180 760">
<rect width="100%" height="100%" fill="#FFFFFF"/>
<text x="70" y="38" font-family="Arial, sans-serif" font-size="21" font-weight="700" fill="#263238">Capture Loss by Country to 2030 (baseline collection)</text>
<line x1="720" y1="34" x2="770" y2="34" stroke="#D1495B" stroke-width="3" stroke-linecap="round"/>
<text x="780" y="38" font-family="Arial, sans-serif" font-size="13" fill="#263238">EOL capture loss Li</text>
<line x1="720" y1="56" x2="770" y2="56" stroke="#2A9D8F" stroke-width="3" stroke-linecap="round"/>
<text x="780" y="60" font-family="Arial, sans-serif" font-size="13" fill="#263238">Manufacturing capture loss Li</text>
<text x="70" y="80" font-family="Arial, sans-serif" font-size="16" font-weight="700" fill="#263238">China</text>
<line x1="118" y1="292.0" x2="386" y2="292.0" stroke="#D6D8DC" stroke-width="0.8"/>
<text x="110" y="296.0" font-family="Arial, sans-serif" font-size="10" fill="#5F6B73" text-anchor="end">0.0</text>
<line x1="118" y1="196.0" x2="386" y2="196.0" stroke="#D6D8DC" stroke-width="0.8"/>
<text x="110" y="200.0" font-family="Arial, sans-serif" font-size="10" fill="#5F6B73" text-anchor="end">9.3</text>
<line x1="118" y1="100.0" x2="386" y2="100.0" stroke="#D6D8DC" stroke-width="0.8"/>
<text x="110" y="104.0" font-family="Arial, sans-serif" font-size="10" fill="#5F6B73" text-anchor="end">18.7</text>
<text x="185.0" y="312" font-family="Arial, sans-serif" font-size="10" fill="#455A64" text-anchor="middle">2015</text>
<text x="252.0" y="312" font-family="Arial, sans-serif" font-size="10" fill="#455A64" text-anchor="middle">2020</text>
<text x="319.0" y="312" font-family="Arial, sans-serif" font-size="10" fill="#455A64" text-anchor="middle">2025</text>
<text x="386.0" y="312" font-family="Arial, sans-serif" font-size="10" fill="#455A64" text-anchor="middle">2030</text>
<line x1="118" y1="292" x2="386" y2="292" stroke="#455A64" stroke-width="1"/>
<line x1="118" y1="100" x2="118" y2="292" stroke="#455A64" stroke-width="1"/>
<polyline points="118.0,292.0 131.4,292.0 144.8,292.0 158.2,292.0 171.6,292.0 185.0,292.0 198.4,292.0 211.8,291.9 225.2,291.8 238.6,291.5 252.0,290.9 265.4,289.9 278.8,288.1 292.2,285.3 305.6,280.8 319.0,273.6 332.4,261.6 345.8,241.9 359.2,211.3 372.6,167.2 386.0,120.6" fill="none" stroke="#D1495B" stroke-width="2.3" stroke-linejoin="round" stroke-linecap="round"/>
<polyline points="118.0,292.0 131.4,292.0 144.8,292.0 158.2,292.0 171.6,292.0 185.0,292.0 198.4,291.9 211.8,291.9 225.2,291.8 238.6,291.7 252.0,291.7 265.4,291.6 278.8,291.3 292.2,290.7 305.6,290.3 319.0,290.3 332.4,289.9 345.8,289.9 359.2,289.6 372.6,289.3 386.0,289.5" fill="none" stroke="#2A9D8F" stroke-width="2.3" stroke-linejoin="round" stroke-linecap="round"/>
<text x="442" y="80" font-family="Arial, sans-serif" font-size="16" font-weight="700" fill="#263238">USA</text>
<line x1="490" y1="292.0" x2="758" y2="292.0" stroke="#D6D8DC" stroke-width="0.8"/>
<text x="482" y="296.0" font-family="Arial, sans-serif" font-size="10" fill="#5F6B73" text-anchor="end">0.0</text>
<line x1="490" y1="196.0" x2="758" y2="196.0" stroke="#D6D8DC" stroke-width="0.8"/>
<text x="482" y="200.0" font-family="Arial, sans-serif" font-size="10" fill="#5F6B73" text-anchor="end">1.2</text>
<line x1="490" y1="100.0" x2="758" y2="100.0" stroke="#D6D8DC" stroke-width="0.8"/>
<text x="482" y="104.0" font-family="Arial, sans-serif" font-size="10" fill="#5F6B73" text-anchor="end">2.5</text>
<text x="557.0" y="312" font-family="Arial, sans-serif" font-size="10" fill="#455A64" text-anchor="middle">2015</text>
<text x="624.0" y="312" font-family="Arial, sans-serif" font-size="10" fill="#455A64" text-anchor="middle">2020</text>
<text x="691.0" y="312" font-family="Arial, sans-serif" font-size="10" fill="#455A64" text-anchor="middle">2025</text>
<text x="758.0" y="312" font-family="Arial, sans-serif" font-size="10" fill="#455A64" text-anchor="middle">2030</text>
<line x1="490" y1="292" x2="758" y2="292" stroke="#455A64" stroke-width="1"/>
<line x1="490" y1="100" x2="490" y2="292" stroke="#455A64" stroke-width="1"/>
<polyline points="490.0,292.0 503.4,292.0 516.8,292.0 530.2,292.0 543.6,292.0 557.0,291.9 570.4,291.7 583.8,291.2 597.2,290.5 610.6,289.5 624.0,287.9 637.4,285.7 650.8,282.7 664.2,278.5 677.6,272.8 691.0,264.3 704.4,251.0 717.8,235.2 731.2,206.1 744.6,167.5 758.0,120.6" fill="none" stroke="#D1495B" stroke-width="2.3" stroke-linejoin="round" stroke-linecap="round"/>
<polyline points="490.0,292.0 503.4,292.0 516.8,292.0 530.2,292.0 543.6,292.0 557.0,292.0 570.4,291.9 583.8,291.8 597.2,291.7 610.6,291.6 624.0,291.5 637.4,291.5 650.8,290.3 664.2,290.2 677.6,289.0 691.0,288.6 704.4,286.8 717.8,286.1 731.2,285.7 744.6,285.3 758.0,284.4" fill="none" stroke="#2A9D8F" stroke-width="2.3" stroke-linejoin="round" stroke-linecap="round"/>
<text x="814" y="80" font-family="Arial, sans-serif" font-size="16" font-weight="700" fill="#263238">Germany</text>
<line x1="862" y1="292.0" x2="1130" y2="292.0" stroke="#D6D8DC" stroke-width="0.8"/>
<text x="854" y="296.0" font-family="Arial, sans-serif" font-size="10" fill="#5F6B73" text-anchor="end">0.0</text>
<line x1="862" y1="196.0" x2="1130" y2="196.0" stroke="#D6D8DC" stroke-width="0.8"/>
<text x="854" y="200.0" font-family="Arial, sans-serif" font-size="10" fill="#5F6B73" text-anchor="end">0.7</text>
<line x1="862" y1="100.0" x2="1130" y2="100.0" stroke="#D6D8DC" stroke-width="0.8"/>
<text x="854" y="104.0" font-family="Arial, sans-serif" font-size="10" fill="#5F6B73" text-anchor="end">1.5</text>
<text x="929.0" y="312" font-family="Arial, sans-serif" font-size="10" fill="#455A64" text-anchor="middle">2015</text>
<text x="996.0" y="312" font-family="Arial, sans-serif" font-size="10" fill="#455A64" text-anchor="middle">2020</text>
<text x="1063.0" y="312" font-family="Arial, sans-serif" font-size="10" fill="#455A64" text-anchor="middle">2025</text>
<text x="1130.0" y="312" font-family="Arial, sans-serif" font-size="10" fill="#455A64" text-anchor="middle">2030</text>
<line x1="862" y1="292" x2="1130" y2="292" stroke="#455A64" stroke-width="1"/>
<line x1="862" y1="100" x2="862" y2="292" stroke="#455A64" stroke-width="1"/>
<polyline points="862.0,292.0 875.4,292.0 888.8,292.0 902.2,292.0 915.6,292.0 929.0,292.0 942.4,292.0 955.8,291.9 969.2,291.7 982.6,291.4 996.0,290.8 1009.4,289.8 1022.8,287.7 1036.2,283.2 1049.6,273.5 1063.0,249.2 1076.4,204.2 1089.8,171.8 1103.2,145.2 1116.6,128.8 1130.0,120.6" fill="none" stroke="#D1495B" stroke-width="2.3" stroke-linejoin="round" stroke-linecap="round"/>
<polyline points="862.0,292.0 875.4,292.0 888.8,292.0 902.2,292.0 915.6,292.0 929.0,292.0 942.4,292.0 955.8,292.0 969.2,292.0 982.6,292.0 996.0,292.0 1009.4,291.7 1022.8,291.5 1036.2,291.2 1049.6,289.9 1063.0,289.5 1076.4,288.5 1089.8,286.8 1103.2,286.2 1116.6,284.9 1130.0,284.3" fill="none" stroke="#2A9D8F" stroke-width="2.3" stroke-linejoin="round" stroke-linecap="round"/>
<text x="70" y="400" font-family="Arial, sans-serif" font-size="16" font-weight="700" fill="#263238">Korea</text>
<line x1="118" y1="612.0" x2="386" y2="612.0" stroke="#D6D8DC" stroke-width="0.8"/>
<text x="110" y="616.0" font-family="Arial, sans-serif" font-size="10" fill="#5F6B73" text-anchor="end">0.0</text>
<line x1="118" y1="516.0" x2="386" y2="516.0" stroke="#D6D8DC" stroke-width="0.8"/>
<text x="110" y="520.0" font-family="Arial, sans-serif" font-size="10" fill="#5F6B73" text-anchor="end">0.2</text>
<line x1="118" y1="420.0" x2="386" y2="420.0" stroke="#D6D8DC" stroke-width="0.8"/>
<text x="110" y="424.0" font-family="Arial, sans-serif" font-size="10" fill="#5F6B73" text-anchor="end">0.4</text>
<text x="185.0" y="632" font-family="Arial, sans-serif" font-size="10" fill="#455A64" text-anchor="middle">2015</text>
<text x="252.0" y="632" font-family="Arial, sans-serif" font-size="10" fill="#455A64" text-anchor="middle">2020</text>
<text x="319.0" y="632" font-family="Arial, sans-serif" font-size="10" fill="#455A64" text-anchor="middle">2025</text>
<text x="386.0" y="632" font-family="Arial, sans-serif" font-size="10" fill="#455A64" text-anchor="middle">2030</text>
<line x1="118" y1="612" x2="386" y2="612" stroke="#455A64" stroke-width="1"/>
<line x1="118" y1="420" x2="118" y2="612" stroke="#455A64" stroke-width="1"/>
<polyline points="118.0,612.0 131.4,612.0 144.8,612.0 158.2,612.0 171.6,612.0 185.0,612.0 198.4,612.0 211.8,612.0 225.2,611.9 238.6,611.8 252.0,611.3 265.4,610.4 278.8,608.7 292.2,605.4 305.6,599.6 319.0,589.5 332.4,572.4 345.8,552.0 359.2,519.4 372.6,480.4 386.0,440.6" fill="none" stroke="#D1495B" stroke-width="2.3" stroke-linejoin="round" stroke-linecap="round"/>
<polyline points="118.0,612.0 131.4,612.0 144.8,612.0 158.2,612.0 171.6,612.0 185.0,611.9 198.4,611.7 211.8,611.7 225.2,611.7 238.6,611.4 252.0,611.5 265.4,611.6 278.8,611.5 292.2,611.1 305.6,611.0 319.0,610.9 332.4,610.2 345.8,609.9 359.2,609.6 372.6,609.4 386.0,609.4" fill="none" stroke="#2A9D8F" stroke-width="2.3" stroke-linejoin="round" stroke-linecap="round"/>
<text x="442" y="400" font-family="Arial, sans-serif" font-size="16" font-weight="700" fill="#263238">Japan</text>
<line x1="490" y1="612.0" x2="758" y2="612.0" stroke="#D6D8DC" stroke-width="0.8"/>
<text x="482" y="616.0" font-family="Arial, sans-serif" font-size="10" fill="#5F6B73" text-anchor="end">0.0</text>
<line x1="490" y1="516.0" x2="758" y2="516.0" stroke="#D6D8DC" stroke-width="0.8"/>
<text x="482" y="520.0" font-family="Arial, sans-serif" font-size="10" fill="#5F6B73" text-anchor="end">0.0</text>
<line x1="490" y1="420.0" x2="758" y2="420.0" stroke="#D6D8DC" stroke-width="0.8"/>
<text x="482" y="424.0" font-family="Arial, sans-serif" font-size="10" fill="#5F6B73" text-anchor="end">0.1</text>
<text x="557.0" y="632" font-family="Arial, sans-serif" font-size="10" fill="#455A64" text-anchor="middle">2015</text>
<text x="624.0" y="632" font-family="Arial, sans-serif" font-size="10" fill="#455A64" text-anchor="middle">2020</text>
<text x="691.0" y="632" font-family="Arial, sans-serif" font-size="10" fill="#455A64" text-anchor="middle">2025</text>
<text x="758.0" y="632" font-family="Arial, sans-serif" font-size="10" fill="#455A64" text-anchor="middle">2030</text>
<line x1="490" y1="612" x2="758" y2="612" stroke="#455A64" stroke-width="1"/>
<line x1="490" y1="420" x2="490" y2="612" stroke="#455A64" stroke-width="1"/>
<polyline points="490.0,612.0 503.4,612.0 516.8,612.0 530.2,611.9 543.6,611.7 557.0,611.1 570.4,609.7 583.8,607.5 597.2,604.1 610.6,599.7 624.0,594.2 637.4,587.6 650.8,579.9 664.2,571.3 677.6,562.2 691.0,552.4 704.4,539.4 717.8,528.1 731.2,503.1 744.6,472.5 758.0,440.6" fill="none" stroke="#D1495B" stroke-width="2.3" stroke-linejoin="round" stroke-linecap="round"/>
<polyline points="490.0,612.0 503.4,612.0 516.8,612.0 530.2,612.0 543.6,612.0 557.0,611.6 570.4,610.4 583.8,610.3 597.2,610.2 610.6,609.6 624.0,610.0 637.4,610.4 650.8,609.8 664.2,609.2 677.6,608.0 691.0,607.1 704.4,607.1 717.8,607.4 731.2,607.1 744.6,606.7 758.0,606.0" fill="none" stroke="#2A9D8F" stroke-width="2.3" stroke-linejoin="round" stroke-linecap="round"/>
<text x="70" y="728" font-family="Arial, sans-serif" font-size="12" fill="#5F6B73">Y-axis labels are thousand tonnes Li. Manufacturing capture loss uses country-year manufacturing scrap capture rates.</text>
</svg>