<svg xmlns="http://www.w3.org/2000/svg" width="1060" height="620" viewBox="0 0 1060 620">
<rect width="100%" height="100%" fill="#FFFFFF"/>
<text x="78" y="38" font-family="Arial, sans-serif" font-size="21" font-weight="700" fill="#263238">Lithium Loss Categories Compared</text>
<text x="78" y="58" font-family="Arial, sans-serif" font-size="12" fill="#5F6B73">Capture loss combines EOL and manufacturing scrap capture losses. Trade-policy loss uses current-policy displaced-route lithium. Units: kt Li.</text>
<line x1="78" y1="534.0" x2="1026" y2="534.0" stroke="#D6D8DC" stroke-width="1"/>
<text x="68" y="538.0" font-family="Arial, sans-serif" font-size="12" fill="#5F6B73" text-anchor="end">0</text>
<line x1="78" y1="441.6" x2="1026" y2="441.6" stroke="#D6D8DC" stroke-width="1"/>
<text x="68" y="445.6" font-family="Arial, sans-serif" font-size="12" fill="#5F6B73" text-anchor="end">30</text>
<line x1="78" y1="349.2" x2="1026" y2="349.2" stroke="#D6D8DC" stroke-width="1"/>
<text x="68" y="353.2" font-family="Arial, sans-serif" font-size="12" fill="#5F6B73" text-anchor="end">60</text>
<line x1="78" y1="256.8" x2="1026" y2="256.8" stroke="#D6D8DC" stroke-width="1"/>
<text x="68" y="260.8" font-family="Arial, sans-serif" font-size="12" fill="#5F6B73" text-anchor="end">90</text>
<line x1="78" y1="164.4" x2="1026" y2="164.4" stroke="#D6D8DC" stroke-width="1"/>
<text x="68" y="168.4" font-family="Arial, sans-serif" font-size="12" fill="#5F6B73" text-anchor="end">121</text>
<line x1="78" y1="72.0" x2="1026" y2="72.0" stroke="#D6D8DC" stroke-width="1"/>
<text x="68" y="76.0" font-family="Arial, sans-serif" font-size="12" fill="#5F6B73" text-anchor="end">151</text>
<text x="157.0" y="562" font-family="Arial, sans-serif" font-size="12" fill="#455A64" text-anchor="middle">2025</text>
<rect x="98.9" y="525.2" width="25.3" height="8.8" fill="#D1495B"/>
<rect x="129.2" y="534.0" width="25.3" height="0.0" fill="#F28E2B"/>
<rect x="159.5" y="534.0" width="25.3" height="0.0" fill="#2A9D8F"/>
<rect x="189.9" y="534.0" width="25.3" height="0.0" fill="#6D5BD0"/>
<text x="315.0" y="562" font-family="Arial, sans-serif" font-size="12" fill="#455A64" text-anchor="middle">2030</text>
<rect x="256.9" y="482.4" width="25.3" height="51.6" fill="#D1495B"/>
<rect x="287.2" y="506.8" width="25.3" height="27.2" fill="#F28E2B"/>
<rect x="317.5" y="508.0" width="25.3" height="26.0" fill="#2A9D8F"/>
<rect x="347.9" y="534.0" width="25.3" height="0.0" fill="#6D5BD0"/>
<text x="473.0" y="562" font-family="Arial, sans-serif" font-size="12" fill="#455A64" text-anchor="middle">2035</text>
<rect x="414.9" y="421.2" width="25.3" height="112.8" fill="#D1495B"/>
<rect x="445.2" y="534.0" width="25.3" height="0.0" fill="#F28E2B"/>
<rect x="475.5" y="534.0" width="25.3" height="0.0" fill="#2A9D8F"/>
<rect x="505.9" y="534.0" width="25.3" height="0.0" fill="#6D5BD0"/>
<text x="631.0" y="562" font-family="Arial, sans-serif" font-size="12" fill="#455A64" text-anchor="middle">2040</text>
<rect x="572.9" y="387.9" width="25.3" height="146.1" fill="#D1495B"/>
<rect x="603.2" y="350.2" width="25.3" height="183.8" fill="#F28E2B"/>
<rect x="633.5" y="504.2" width="25.3" height="29.8" fill="#2A9D8F"/>
<rect x="663.9" y="523.6" width="25.3" height="10.4" fill="#6D5BD0"/>
<text x="789.0" y="562" font-family="Arial, sans-serif" font-size="12" fill="#455A64" text-anchor="middle">2045</text>
<rect x="730.9" y="320.5" width="25.3" height="213.5" fill="#D1495B"/>
<rect x="761.2" y="534.0" width="25.3" height="0.0" fill="#F28E2B"/>
<rect x="791.5" y="534.0" width="25.3" height="0.0" fill="#2A9D8F"/>
<rect x="821.9" y="528.2" width="25.3" height="5.8" fill="#6D5BD0"/>
<text x="947.0" y="562" font-family="Arial, sans-serif" font-size="12" fill="#455A64" text-anchor="middle">2050</text>
<rect x="888.9" y="275.9" width="25.3" height="258.1" fill="#D1495B"/>
<rect x="919.2" y="142.5" width="25.3" height="391.5" fill="#F28E2B"/>
<rect x="949.5" y="533.8" width="25.3" height="0.2" fill="#2A9D8F"/>
<rect x="979.9" y="532.0" width="25.3" height="2.0" fill="#6D5BD0"/>
<line x1="78" y1="534" x2="1026" y2="534" stroke="#455A64" stroke-width="1.2"/>
<line x1="78" y1="72" x2="78" y2="534" stroke="#455A64" stroke-width="1.2"/>
<rect x="680" y="72" width="16" height="12" fill="#D1495B"/>
<text x="704" y="82" font-family="Arial, sans-serif" font-size="13" fill="#263238">Capture loss</text>
<rect x="680" y="94" width="16" height="12" fill="#F28E2B"/>
<text x="704" y="104" font-family="Arial, sans-serif" font-size="13" fill="#263238">Technology recovery loss</text>
<rect x="680" y="116" width="16" height="12" fill="#2A9D8F"/>
<text x="704" y="126" font-family="Arial, sans-serif" font-size="13" fill="#263238">Trade-policy loss</text>
<rect x="680" y="138" width="16" height="12" fill="#6D5BD0"/>
<text x="704" y="148" font-family="Arial, sans-serif" font-size="13" fill="#263238">Economic / choice loss</text>
</svg>