<svg xmlns="http://www.w3.org/2000/svg" width="1180" height="760" viewBox="0 0 1180 760">
<rect width="100%" height="100%" fill="#FFFFFF"/>
<text x="70" y="38" font-family="Arial, sans-serif" font-size="21" font-weight="700" fill="#263238">Lithium in Manufacturing Scrap vs. EOL Scrap by Country to 2030</text>
<line x1="760" y1="34" x2="810" y2="34" stroke="#2A9D8F" stroke-width="3" stroke-linecap="round"/>
<text x="820" y="38" font-family="Arial, sans-serif" font-size="13" fill="#263238">Manufacturing scrap Li</text>
<line x1="760" y1="56" x2="810" y2="56" stroke="#D1495B" stroke-width="3" stroke-linecap="round"/>
<text x="820" y="60" font-family="Arial, sans-serif" font-size="13" fill="#263238">EOL scrap Li</text>
<text x="70" y="80" font-family="Arial, sans-serif" font-size="16" font-weight="700" fill="#263238">China</text>
<line x1="118" y1="292.0" x2="386" y2="292.0" stroke="#D6D8DC" stroke-width="0.8"/>
<text x="110" y="296.0" font-family="Arial, sans-serif" font-size="10" fill="#5F6B73" text-anchor="end">0</text>
<line x1="118" y1="196.0" x2="386" y2="196.0" stroke="#D6D8DC" stroke-width="0.8"/>
<text x="110" y="200.0" font-family="Arial, sans-serif" font-size="10" fill="#5F6B73" text-anchor="end">24</text>
<line x1="118" y1="100.0" x2="386" y2="100.0" stroke="#D6D8DC" stroke-width="0.8"/>
<text x="110" y="104.0" font-family="Arial, sans-serif" font-size="10" fill="#5F6B73" text-anchor="end">49</text>
<text x="185.0" y="312" font-family="Arial, sans-serif" font-size="10" fill="#455A64" text-anchor="middle">2015</text>
<text x="252.0" y="312" font-family="Arial, sans-serif" font-size="10" fill="#455A64" text-anchor="middle">2020</text>
<text x="319.0" y="312" font-family="Arial, sans-serif" font-size="10" fill="#455A64" text-anchor="middle">2025</text>
<text x="386.0" y="312" font-family="Arial, sans-serif" font-size="10" fill="#455A64" text-anchor="middle">2030</text>
<line x1="118" y1="292" x2="386" y2="292" stroke="#455A64" stroke-width="1"/>
<line x1="118" y1="100" x2="118" y2="292" stroke="#455A64" stroke-width="1"/>
<polyline points="118.0,292.0 131.4,292.0 144.8,292.0 158.2,292.0 171.6,292.0 185.0,291.8 198.4,291.0 211.8,290.5 225.2,290.0 238.6,288.6 252.0,288.0 265.4,286.6 278.8,281.8 292.2,273.9 305.6,267.5 319.0,259.7 332.4,251.4 345.8,250.3 359.2,241.1 372.6,234.4 386.0,237.1" fill="none" stroke="#2A9D8F" stroke-width="2.3" stroke-linejoin="round" stroke-linecap="round"/>
<polyline points="118.0,292.0 131.4,292.0 144.8,292.0 158.2,292.0 171.6,292.0 185.0,292.0 198.4,292.0 211.8,291.9 225.2,291.8 238.6,291.6 252.0,291.2 265.4,290.3 278.8,288.9 292.2,286.6 305.6,282.9 319.0,276.9 332.4,266.6 345.8,249.2 359.2,221.6 372.6,179.9 386.0,120.6" fill="none" stroke="#D1495B" stroke-width="2.3" stroke-linejoin="round" stroke-linecap="round"/>
<text x="442" y="80" font-family="Arial, sans-serif" font-size="16" font-weight="700" fill="#263238">USA</text>
<line x1="490" y1="292.0" x2="758" y2="292.0" stroke="#D6D8DC" stroke-width="0.8"/>
<text x="482" y="296.0" font-family="Arial, sans-serif" font-size="10" fill="#5F6B73" text-anchor="end">0</text>
<line x1="490" y1="196.0" x2="758" y2="196.0" stroke="#D6D8DC" stroke-width="0.8"/>
<text x="482" y="200.0" font-family="Arial, sans-serif" font-size="10" fill="#5F6B73" text-anchor="end">5</text>
<line x1="490" y1="100.0" x2="758" y2="100.0" stroke="#D6D8DC" stroke-width="0.8"/>
<text x="482" y="104.0" font-family="Arial, sans-serif" font-size="10" fill="#5F6B73" text-anchor="end">10</text>
<text x="557.0" y="312" font-family="Arial, sans-serif" font-size="10" fill="#455A64" text-anchor="middle">2015</text>
<text x="624.0" y="312" font-family="Arial, sans-serif" font-size="10" fill="#455A64" text-anchor="middle">2020</text>
<text x="691.0" y="312" font-family="Arial, sans-serif" font-size="10" fill="#455A64" text-anchor="middle">2025</text>
<text x="758.0" y="312" font-family="Arial, sans-serif" font-size="10" fill="#455A64" text-anchor="middle">2030</text>
<line x1="490" y1="292" x2="758" y2="292" stroke="#455A64" stroke-width="1"/>
<line x1="490" y1="100" x2="490" y2="292" stroke="#455A64" stroke-width="1"/>
<polyline points="490.0,292.0 503.4,292.0 516.8,292.0 530.2,292.0 543.6,292.0 557.0,291.9 570.4,291.3 583.8,290.7 597.2,290.7 610.6,289.9 624.0,289.5 637.4,289.4 650.8,283.4 664.2,282.6 677.6,276.8 691.0,274.5 704.4,264.4 717.8,259.4 731.2,256.2 744.6,252.1 758.0,244.9" fill="none" stroke="#2A9D8F" stroke-width="2.3" stroke-linejoin="round" stroke-linecap="round"/>
<polyline points="490.0,292.0 503.4,292.0 516.8,292.0 530.2,292.0 543.6,292.0 557.0,291.9 570.4,291.8 583.8,291.5 597.2,291.0 610.6,290.3 624.0,289.3 637.4,287.8 650.8,285.7 664.2,282.7 677.6,278.4 691.0,272.0 704.4,261.5 717.8,243.9 731.2,215.8 744.6,175.3 758.0,120.6" fill="none" stroke="#D1495B" stroke-width="2.3" stroke-linejoin="round" stroke-linecap="round"/>
<text x="814" y="80" font-family="Arial, sans-serif" font-size="16" font-weight="700" fill="#263238">Germany</text>
<line x1="862" y1="292.0" x2="1130" y2="292.0" stroke="#D6D8DC" stroke-width="0.8"/>
<text x="854" y="296.0" font-family="Arial, sans-serif" font-size="10" fill="#5F6B73" text-anchor="end">0</text>
<line x1="862" y1="196.0" x2="1130" y2="196.0" stroke="#D6D8DC" stroke-width="0.8"/>
<text x="854" y="200.0" font-family="Arial, sans-serif" font-size="10" fill="#5F6B73" text-anchor="end">3</text>
<line x1="862" y1="100.0" x2="1130" y2="100.0" stroke="#D6D8DC" stroke-width="0.8"/>
<text x="854" y="104.0" font-family="Arial, sans-serif" font-size="10" fill="#5F6B73" text-anchor="end">6</text>
<text x="929.0" y="312" font-family="Arial, sans-serif" font-size="10" fill="#455A64" text-anchor="middle">2015</text>
<text x="996.0" y="312" font-family="Arial, sans-serif" font-size="10" fill="#455A64" text-anchor="middle">2020</text>
<text x="1063.0" y="312" font-family="Arial, sans-serif" font-size="10" fill="#455A64" text-anchor="middle">2025</text>
<text x="1130.0" y="312" font-family="Arial, sans-serif" font-size="10" fill="#455A64" text-anchor="middle">2030</text>
<line x1="862" y1="292" x2="1130" y2="292" stroke="#455A64" stroke-width="1"/>
<line x1="862" y1="100" x2="862" y2="292" stroke="#455A64" stroke-width="1"/>
<polyline points="862.0,292.0 875.4,292.0 888.8,292.0 902.2,292.0 915.6,292.0 929.0,292.0 942.4,292.0 955.8,292.0 969.2,292.0 982.6,292.0 996.0,292.0 1009.4,291.1 1022.8,290.5 1036.2,289.4 1049.6,285.3 1063.0,284.1 1076.4,280.1 1089.8,273.8 1103.2,270.4 1116.6,264.4 1130.0,260.8" fill="none" stroke="#2A9D8F" stroke-width="2.3" stroke-linejoin="round" stroke-linecap="round"/>
<polyline points="862.0,292.0 875.4,292.0 888.8,292.0 902.2,292.0 915.6,292.0 929.0,292.0 942.4,292.0 955.8,291.9 969.2,291.8 982.6,291.6 996.0,291.2 1009.4,290.5 1022.8,289.1 1036.2,285.9 1049.6,279.0 1063.0,261.1 1076.4,226.8 1089.8,190.2 1103.2,161.7 1116.6,138.9 1130.0,120.6" fill="none" stroke="#D1495B" stroke-width="2.3" stroke-linejoin="round" stroke-linecap="round"/>
<text x="70" y="400" font-family="Arial, sans-serif" font-size="16" font-weight="700" fill="#263238">Korea</text>
<line x1="118" y1="612.0" x2="386" y2="612.0" stroke="#D6D8DC" stroke-width="0.8"/>
<text x="110" y="616.0" font-family="Arial, sans-serif" font-size="10" fill="#5F6B73" text-anchor="end">0</text>
<line x1="118" y1="516.0" x2="386" y2="516.0" stroke="#D6D8DC" stroke-width="0.8"/>
<text x="110" y="520.0" font-family="Arial, sans-serif" font-size="10" fill="#5F6B73" text-anchor="end">1</text>
<line x1="118" y1="420.0" x2="386" y2="420.0" stroke="#D6D8DC" stroke-width="0.8"/>
<text x="110" y="424.0" font-family="Arial, sans-serif" font-size="10" fill="#5F6B73" text-anchor="end">1</text>
<text x="185.0" y="632" font-family="Arial, sans-serif" font-size="10" fill="#455A64" text-anchor="middle">2015</text>
<text x="252.0" y="632" font-family="Arial, sans-serif" font-size="10" fill="#455A64" text-anchor="middle">2020</text>
<text x="319.0" y="632" font-family="Arial, sans-serif" font-size="10" fill="#455A64" text-anchor="middle">2025</text>
<text x="386.0" y="632" font-family="Arial, sans-serif" font-size="10" fill="#455A64" text-anchor="middle">2030</text>
<line x1="118" y1="612" x2="386" y2="612" stroke="#455A64" stroke-width="1"/>
<line x1="118" y1="420" x2="118" y2="612" stroke="#455A64" stroke-width="1"/>
<polyline points="118.0,612.0 131.4,612.0 144.8,612.0 158.2,612.0 171.6,612.0 185.0,611.4 198.4,609.3 211.8,609.0 225.2,609.0 238.6,606.4 252.0,606.8 265.4,608.0 278.8,607.3 292.2,602.8 305.6,602.4 319.0,597.7 332.4,587.6 345.8,582.9 359.2,578.2 372.6,574.6 386.0,572.5" fill="none" stroke="#2A9D8F" stroke-width="2.3" stroke-linejoin="round" stroke-linecap="round"/>
<polyline points="118.0,612.0 131.4,612.0 144.8,612.0 158.2,612.0 171.6,612.0 185.0,612.0 198.4,612.0 211.8,612.0 225.2,611.9 238.6,611.8 252.0,611.6 265.4,610.9 278.8,609.7 292.2,607.5 305.6,603.3 319.0,595.7 332.4,582.6 345.8,561.2 359.2,529.8 372.6,488.6 386.0,440.6" fill="none" stroke="#D1495B" stroke-width="2.3" stroke-linejoin="round" stroke-linecap="round"/>
<text x="442" y="400" font-family="Arial, sans-serif" font-size="16" font-weight="700" fill="#263238">Japan</text>
<line x1="490" y1="612.0" x2="758" y2="612.0" stroke="#D6D8DC" stroke-width="0.8"/>
<text x="482" y="616.0" font-family="Arial, sans-serif" font-size="10" fill="#5F6B73" text-anchor="end">0</text>
<line x1="490" y1="516.0" x2="758" y2="516.0" stroke="#D6D8DC" stroke-width="0.8"/>
<text x="482" y="520.0" font-family="Arial, sans-serif" font-size="10" fill="#5F6B73" text-anchor="end">0</text>
<line x1="490" y1="420.0" x2="758" y2="420.0" stroke="#D6D8DC" stroke-width="0.8"/>
<text x="482" y="424.0" font-family="Arial, sans-serif" font-size="10" fill="#5F6B73" text-anchor="end">0</text>
<text x="557.0" y="632" font-family="Arial, sans-serif" font-size="10" fill="#455A64" text-anchor="middle">2015</text>
<text x="624.0" y="632" font-family="Arial, sans-serif" font-size="10" fill="#455A64" text-anchor="middle">2020</text>
<text x="691.0" y="632" font-family="Arial, sans-serif" font-size="10" fill="#455A64" text-anchor="middle">2025</text>
<text x="758.0" y="632" font-family="Arial, sans-serif" font-size="10" fill="#455A64" text-anchor="middle">2030</text>
<line x1="490" y1="612" x2="758" y2="612" stroke="#455A64" stroke-width="1"/>
<line x1="490" y1="420" x2="490" y2="612" stroke="#455A64" stroke-width="1"/>
<polyline points="490.0,612.0 503.4,612.0 516.8,612.0 530.2,612.0 543.6,612.0 557.0,608.1 570.4,595.8 583.8,594.8 597.2,594.5 610.6,588.4 624.0,592.6 637.4,596.5 650.8,590.3 664.2,584.6 677.6,572.1 691.0,548.6 704.4,547.6 717.8,549.2 731.2,543.6 744.6,534.8 758.0,522.7" fill="none" stroke="#2A9D8F" stroke-width="2.3" stroke-linejoin="round" stroke-linecap="round"/>
<polyline points="490.0,612.0 503.4,612.0 516.8,612.0 530.2,612.0 543.6,611.8 557.0,611.4 570.4,610.5 583.8,609.0 597.2,606.8 610.6,603.9 624.0,600.1 637.4,595.6 650.8,590.2 664.2,583.9 677.6,576.9 691.0,568.9 704.4,558.0 717.8,541.0 731.2,515.4 744.6,481.2 758.0,440.6" fill="none" stroke="#D1495B" stroke-width="2.3" stroke-linejoin="round" stroke-linecap="round"/>
<text x="70" y="728" font-family="Arial, sans-serif" font-size="12" fill="#5F6B73">Y-axis labels are thousand tonnes Li. Manufacturing scrap is allocated only to battery-producing countries.</text>
</svg>