<svg xmlns="http://www.w3.org/2000/svg" width="1180" height="760" viewBox="0 0 1180 760">
<rect width="100%" height="100%" fill="#FFFFFF"/>
<text x="70" y="38" font-family="Arial, sans-serif" font-size="21" font-weight="700" fill="#263238">Lithium in Manufacturing Scrap vs. EOL Scrap by Country</text>
<line x1="760" y1="34" x2="810" y2="34" stroke="#2A9D8F" stroke-width="3" stroke-linecap="round"/>
<text x="820" y="38" font-family="Arial, sans-serif" font-size="13" fill="#263238">Manufacturing scrap Li</text>
<line x1="760" y1="56" x2="810" y2="56" stroke="#D1495B" stroke-width="3" stroke-linecap="round"/>
<text x="820" y="60" font-family="Arial, sans-serif" font-size="13" fill="#263238">EOL scrap Li</text>
<text x="70" y="80" font-family="Arial, sans-serif" font-size="16" font-weight="700" fill="#263238">China</text>
<line x1="118" y1="292.0" x2="386" y2="292.0" stroke="#D6D8DC" stroke-width="0.8"/>
<text x="110" y="296.0" font-family="Arial, sans-serif" font-size="10" fill="#5F6B73" text-anchor="end">0</text>
<line x1="118" y1="196.0" x2="386" y2="196.0" stroke="#D6D8DC" stroke-width="0.8"/>
<text x="110" y="200.0" font-family="Arial, sans-serif" font-size="10" fill="#5F6B73" text-anchor="end">206</text>
<line x1="118" y1="100.0" x2="386" y2="100.0" stroke="#D6D8DC" stroke-width="0.8"/>
<text x="110" y="104.0" font-family="Arial, sans-serif" font-size="10" fill="#5F6B73" text-anchor="end">413</text>
<text x="151.5" y="312" font-family="Arial, sans-serif" font-size="10" fill="#455A64" text-anchor="middle">2015</text>
<text x="185.0" y="312" font-family="Arial, sans-serif" font-size="10" fill="#455A64" text-anchor="middle">2020</text>
<text x="218.5" y="312" font-family="Arial, sans-serif" font-size="10" fill="#455A64" text-anchor="middle">2025</text>
<text x="252.0" y="312" font-family="Arial, sans-serif" font-size="10" fill="#455A64" text-anchor="middle">2030</text>
<text x="319.0" y="312" font-family="Arial, sans-serif" font-size="10" fill="#455A64" text-anchor="middle">2040</text>
<text x="386.0" y="312" font-family="Arial, sans-serif" font-size="10" fill="#455A64" text-anchor="middle">2050</text>
<line x1="118" y1="292" x2="386" y2="292" stroke="#455A64" stroke-width="1"/>
<line x1="118" y1="100" x2="118" y2="292" stroke="#455A64" stroke-width="1"/>
<polyline points="118.0,292.0 124.7,292.0 131.4,292.0 138.1,292.0 144.8,292.0 151.5,292.0 158.2,291.9 164.9,291.8 171.6,291.8 178.3,291.6 185.0,291.5 191.7,291.4 198.4,290.8 205.1,289.9 211.8,289.1 218.5,288.2 225.2,287.2 231.9,287.1 238.6,286.0 245.3,285.2 252.0,285.5 258.7,285.0 265.4,285.2 272.1,286.0 278.8,285.7 285.5,285.5 292.2,285.4 298.9,285.3 305.6,285.3 312.3,285.1 319.0,285.0 325.7,284.9 332.4,284.7 339.1,284.6 345.8,284.4 352.5,284.2 359.2,284.1 365.9,283.9 372.6,283.7 379.3,283.5 386.0,283.3" fill="none" stroke="#2A9D8F" stroke-width="2.3" stroke-linejoin="round" stroke-linecap="round"/>
<polyline points="118.0,292.0 124.7,292.0 131.4,292.0 138.1,292.0 144.8,292.0 151.5,292.0 158.2,292.0 164.9,292.0 171.6,292.0 178.3,292.0 185.0,291.9 191.7,291.8 198.4,291.6 205.1,291.4 211.8,290.9 218.5,290.2 225.2,289.0 231.9,286.9 238.6,283.7 245.3,278.7 252.0,271.7 258.7,262.0 265.4,249.2 272.1,232.9 278.8,213.7 285.5,192.5 292.2,171.2 298.9,151.8 305.6,136.3 312.3,126.0 319.0,121.1 325.7,120.6 332.4,122.7 339.1,125.8 345.8,128.3 352.5,129.8 359.2,130.2 365.9,129.6 372.6,128.2 379.3,126.2 386.0,124.4" fill="none" stroke="#D1495B" stroke-width="2.3" stroke-linejoin="round" stroke-linecap="round"/>
<text x="442" y="80" font-family="Arial, sans-serif" font-size="16" font-weight="700" fill="#263238">USA</text>
<line x1="490" y1="292.0" x2="758" y2="292.0" stroke="#D6D8DC" stroke-width="0.8"/>
<text x="482" y="296.0" font-family="Arial, sans-serif" font-size="10" fill="#5F6B73" text-anchor="end">0</text>
<line x1="490" y1="196.0" x2="758" y2="196.0" stroke="#D6D8DC" stroke-width="0.8"/>
<text x="482" y="200.0" font-family="Arial, sans-serif" font-size="10" fill="#5F6B73" text-anchor="end">88</text>
<line x1="490" y1="100.0" x2="758" y2="100.0" stroke="#D6D8DC" stroke-width="0.8"/>
<text x="482" y="104.0" font-family="Arial, sans-serif" font-size="10" fill="#5F6B73" text-anchor="end">177</text>
<text x="523.5" y="312" font-family="Arial, sans-serif" font-size="10" fill="#455A64" text-anchor="middle">2015</text>
<text x="557.0" y="312" font-family="Arial, sans-serif" font-size="10" fill="#455A64" text-anchor="middle">2020</text>
<text x="590.5" y="312" font-family="Arial, sans-serif" font-size="10" fill="#455A64" text-anchor="middle">2025</text>
<text x="624.0" y="312" font-family="Arial, sans-serif" font-size="10" fill="#455A64" text-anchor="middle">2030</text>
<text x="691.0" y="312" font-family="Arial, sans-serif" font-size="10" fill="#455A64" text-anchor="middle">2040</text>
<text x="758.0" y="312" font-family="Arial, sans-serif" font-size="10" fill="#455A64" text-anchor="middle">2050</text>
<line x1="490" y1="292" x2="758" y2="292" stroke="#455A64" stroke-width="1"/>
<line x1="490" y1="100" x2="490" y2="292" stroke="#455A64" stroke-width="1"/>
<polyline points="490.0,292.0 496.7,292.0 503.4,292.0 510.1,292.0 516.8,292.0 523.5,292.0 530.2,292.0 536.9,291.9 543.6,291.9 550.3,291.9 557.0,291.9 563.7,291.9 570.4,291.5 577.1,291.5 583.8,291.2 590.5,291.0 597.2,290.5 603.9,290.2 610.6,290.0 617.3,289.8 624.0,289.4 630.7,289.0 637.4,288.6 644.1,288.3 650.8,288.0 657.5,287.6 664.2,287.4 670.9,287.2 677.6,287.0 684.3,286.8 691.0,286.6 697.7,286.4 704.4,286.2 711.1,286.0 717.8,285.8 724.5,285.6 731.2,285.4 737.9,285.2 744.6,285.0 751.3,284.8 758.0,284.6" fill="none" stroke="#2A9D8F" stroke-width="2.3" stroke-linejoin="round" stroke-linecap="round"/>
<polyline points="490.0,292.0 496.7,292.0 503.4,292.0 510.1,292.0 516.8,292.0 523.5,292.0 530.2,292.0 536.9,292.0 543.6,291.9 550.3,291.9 557.0,291.9 563.7,291.8 570.4,291.7 577.1,291.5 583.8,291.3 590.5,290.9 597.2,290.3 603.9,289.4 610.6,287.8 617.3,285.6 624.0,282.6 630.7,278.9 637.4,274.2 644.1,268.4 650.8,261.2 657.5,252.1 664.2,241.0 670.9,227.8 677.6,213.3 684.3,198.1 691.0,183.0 697.7,168.7 704.4,156.0 711.1,145.4 717.8,137.3 724.5,131.5 731.2,127.7 737.9,125.2 744.6,123.5 751.3,122.1 758.0,120.6" fill="none" stroke="#D1495B" stroke-width="2.3" stroke-linejoin="round" stroke-linecap="round"/>
<text x="814" y="80" font-family="Arial, sans-serif" font-size="16" font-weight="700" fill="#263238">Germany</text>
<line x1="862" y1="292.0" x2="1130" y2="292.0" stroke="#D6D8DC" stroke-width="0.8"/>
<text x="854" y="296.0" font-family="Arial, sans-serif" font-size="10" fill="#5F6B73" text-anchor="end">0</text>
<line x1="862" y1="196.0" x2="1130" y2="196.0" stroke="#D6D8DC" stroke-width="0.8"/>
<text x="854" y="200.0" font-family="Arial, sans-serif" font-size="10" fill="#5F6B73" text-anchor="end">3</text>
<line x1="862" y1="100.0" x2="1130" y2="100.0" stroke="#D6D8DC" stroke-width="0.8"/>
<text x="854" y="104.0" font-family="Arial, sans-serif" font-size="10" fill="#5F6B73" text-anchor="end">6</text>
<text x="895.5" y="312" font-family="Arial, sans-serif" font-size="10" fill="#455A64" text-anchor="middle">2015</text>
<text x="929.0" y="312" font-family="Arial, sans-serif" font-size="10" fill="#455A64" text-anchor="middle">2020</text>
<text x="962.5" y="312" font-family="Arial, sans-serif" font-size="10" fill="#455A64" text-anchor="middle">2025</text>
<text x="996.0" y="312" font-family="Arial, sans-serif" font-size="10" fill="#455A64" text-anchor="middle">2030</text>
<text x="1063.0" y="312" font-family="Arial, sans-serif" font-size="10" fill="#455A64" text-anchor="middle">2040</text>
<text x="1130.0" y="312" font-family="Arial, sans-serif" font-size="10" fill="#455A64" text-anchor="middle">2050</text>
<line x1="862" y1="292" x2="1130" y2="292" stroke="#455A64" stroke-width="1"/>
<line x1="862" y1="100" x2="862" y2="292" stroke="#455A64" stroke-width="1"/>
<polyline points="862.0,292.0 868.7,292.0 875.4,292.0 882.1,292.0 888.8,292.0 895.5,292.0 902.2,292.0 908.9,292.0 915.6,292.0 922.3,292.0 929.0,292.0 935.7,291.2 942.4,290.5 949.1,289.5 955.8,285.5 962.5,284.4 969.2,280.6 975.9,274.5 982.6,271.3 989.3,265.4 996.0,262.0 1002.7,256.8 1009.4,253.4 1016.1,252.2 1022.8,252.5 1029.5,250.4 1036.2,249.1 1042.9,247.9 1049.6,246.6 1056.3,245.3 1063.0,243.9 1069.7,242.5 1076.4,241.0 1083.1,239.6 1089.8,238.1 1096.5,236.7 1103.2,235.2 1109.9,233.7 1116.6,232.1 1123.3,230.5 1130.0,228.9" fill="none" stroke="#2A9D8F" stroke-width="2.3" stroke-linejoin="round" stroke-linecap="round"/>
<polyline points="862.0,292.0 868.7,292.0 875.4,292.0 882.1,292.0 888.8,292.0 895.5,292.0 902.2,292.0 908.9,291.9 915.6,291.8 922.3,291.6 929.0,291.3 935.7,290.6 942.4,289.2 949.1,286.1 955.8,279.5 962.5,262.3 969.2,229.2 975.9,194.1 982.6,166.7 989.3,144.8 996.0,127.1 1002.7,120.6 1009.4,126.8 1016.1,138.1 1022.8,147.1 1029.5,151.5 1036.2,152.3 1042.9,150.9 1049.6,147.8 1056.3,143.3 1063.0,137.8 1069.7,132.4 1076.4,128.4 1083.1,127.0 1089.8,128.5 1096.5,132.5 1103.2,137.6 1109.9,142.2 1116.6,145.0 1123.3,146.1 1130.0,145.6" fill="none" stroke="#D1495B" stroke-width="2.3" stroke-linejoin="round" stroke-linecap="round"/>
<text x="70" y="400" font-family="Arial, sans-serif" font-size="16" font-weight="700" fill="#263238">Korea</text>
<line x1="118" y1="612.0" x2="386" y2="612.0" stroke="#D6D8DC" stroke-width="0.8"/>
<text x="110" y="616.0" font-family="Arial, sans-serif" font-size="10" fill="#5F6B73" text-anchor="end">0</text>
<line x1="118" y1="516.0" x2="386" y2="516.0" stroke="#D6D8DC" stroke-width="0.8"/>
<text x="110" y="520.0" font-family="Arial, sans-serif" font-size="10" fill="#5F6B73" text-anchor="end">1</text>
<line x1="118" y1="420.0" x2="386" y2="420.0" stroke="#D6D8DC" stroke-width="0.8"/>
<text x="110" y="424.0" font-family="Arial, sans-serif" font-size="10" fill="#5F6B73" text-anchor="end">3</text>
<text x="151.5" y="632" font-family="Arial, sans-serif" font-size="10" fill="#455A64" text-anchor="middle">2015</text>
<text x="185.0" y="632" font-family="Arial, sans-serif" font-size="10" fill="#455A64" text-anchor="middle">2020</text>
<text x="218.5" y="632" font-family="Arial, sans-serif" font-size="10" fill="#455A64" text-anchor="middle">2025</text>
<text x="252.0" y="632" font-family="Arial, sans-serif" font-size="10" fill="#455A64" text-anchor="middle">2030</text>
<text x="319.0" y="632" font-family="Arial, sans-serif" font-size="10" fill="#455A64" text-anchor="middle">2040</text>
<text x="386.0" y="632" font-family="Arial, sans-serif" font-size="10" fill="#455A64" text-anchor="middle">2050</text>
<line x1="118" y1="612" x2="386" y2="612" stroke="#455A64" stroke-width="1"/>
<line x1="118" y1="420" x2="118" y2="612" stroke="#455A64" stroke-width="1"/>
<polyline points="118.0,612.0 124.7,612.0 131.4,612.0 138.1,612.0 144.8,612.0 151.5,611.7 158.2,610.7 164.9,610.6 171.6,610.5 178.3,609.3 185.0,609.5 191.7,610.0 198.4,609.7 205.1,607.5 211.8,607.3 218.5,605.0 225.2,600.1 231.9,597.8 238.6,595.5 245.3,593.8 252.0,592.7 258.7,590.7 265.4,589.6 272.1,590.1 278.8,589.4 285.5,588.4 292.2,587.8 298.9,587.1 305.6,586.5 312.3,585.8 319.0,585.1 325.7,584.4 332.4,583.6 339.1,582.8 345.8,582.0 352.5,581.2 359.2,580.4 365.9,579.6 372.6,578.8 379.3,577.9 386.0,577.1" fill="none" stroke="#2A9D8F" stroke-width="2.3" stroke-linejoin="round" stroke-linecap="round"/>
<polyline points="118.0,612.0 124.7,612.0 131.4,612.0 138.1,612.0 144.8,612.0 151.5,612.0 158.2,612.0 164.9,612.0 171.6,612.0 178.3,611.9 185.0,611.8 191.7,611.5 198.4,610.9 205.1,609.8 211.8,607.7 218.5,604.1 225.2,597.6 231.9,587.2 238.6,571.9 245.3,551.8 252.0,528.4 258.7,503.9 265.4,480.9 272.1,461.6 278.8,448.3 285.5,441.6 292.2,440.6 298.9,443.6 305.6,448.2 312.3,452.3 319.0,454.3 325.7,453.9 332.4,451.7 339.1,448.7 345.8,445.9 352.5,443.9 359.2,442.9 365.9,442.8 372.6,443.7 379.3,445.5 386.0,447.9" fill="none" stroke="#D1495B" stroke-width="2.3" stroke-linejoin="round" stroke-linecap="round"/>
<text x="442" y="400" font-family="Arial, sans-serif" font-size="16" font-weight="700" fill="#263238">Japan</text>
<line x1="490" y1="612.0" x2="758" y2="612.0" stroke="#D6D8DC" stroke-width="0.8"/>
<text x="482" y="616.0" font-family="Arial, sans-serif" font-size="10" fill="#5F6B73" text-anchor="end">0</text>
<line x1="490" y1="516.0" x2="758" y2="516.0" stroke="#D6D8DC" stroke-width="0.8"/>
<text x="482" y="520.0" font-family="Arial, sans-serif" font-size="10" fill="#5F6B73" text-anchor="end">2</text>
<line x1="490" y1="420.0" x2="758" y2="420.0" stroke="#D6D8DC" stroke-width="0.8"/>
<text x="482" y="424.0" font-family="Arial, sans-serif" font-size="10" fill="#5F6B73" text-anchor="end">4</text>
<text x="523.5" y="632" font-family="Arial, sans-serif" font-size="10" fill="#455A64" text-anchor="middle">2015</text>
<text x="557.0" y="632" font-family="Arial, sans-serif" font-size="10" fill="#455A64" text-anchor="middle">2020</text>
<text x="590.5" y="632" font-family="Arial, sans-serif" font-size="10" fill="#455A64" text-anchor="middle">2025</text>
<text x="624.0" y="632" font-family="Arial, sans-serif" font-size="10" fill="#455A64" text-anchor="middle">2030</text>
<text x="691.0" y="632" font-family="Arial, sans-serif" font-size="10" fill="#455A64" text-anchor="middle">2040</text>
<text x="758.0" y="632" font-family="Arial, sans-serif" font-size="10" fill="#455A64" text-anchor="middle">2050</text>
<line x1="490" y1="612" x2="758" y2="612" stroke="#455A64" stroke-width="1"/>
<line x1="490" y1="420" x2="490" y2="612" stroke="#455A64" stroke-width="1"/>
<polyline points="490.0,612.0 496.7,612.0 503.4,612.0 510.1,612.0 516.8,612.0 523.5,611.7 530.2,610.8 536.9,610.7 543.6,610.7 550.3,610.3 557.0,610.6 563.7,610.9 570.4,610.4 577.1,610.0 583.8,609.1 590.5,607.4 597.2,607.3 603.9,607.4 610.6,607.0 617.3,606.4 624.0,605.5 630.7,603.7 637.4,602.2 644.1,601.7 650.8,600.5 657.5,598.9 664.2,598.2 670.9,597.5 677.6,596.8 684.3,596.2 691.0,595.5 697.7,594.9 704.4,594.3 711.1,593.6 717.8,593.0 724.5,592.4 731.2,591.8 737.9,591.1 744.6,590.5 751.3,589.8 758.0,589.2" fill="none" stroke="#2A9D8F" stroke-width="2.3" stroke-linejoin="round" stroke-linecap="round"/>
<polyline points="490.0,612.0 496.7,612.0 503.4,612.0 510.1,612.0 516.8,612.0 523.5,612.0 530.2,611.9 536.9,611.8 543.6,611.6 550.3,611.4 557.0,611.1 563.7,610.8 570.4,610.4 577.1,610.0 583.8,609.5 590.5,608.9 597.2,608.1 603.9,606.8 610.6,605.0 617.3,602.5 624.0,599.5 630.7,596.3 637.4,592.7 644.1,588.8 650.8,584.5 657.5,579.7 664.2,574.4 670.9,568.6 677.6,562.3 684.3,555.2 691.0,547.4 697.7,538.6 704.4,529.1 711.1,519.0 717.8,508.4 724.5,497.6 731.2,486.3 737.9,474.8 744.6,463.2 751.3,451.7 758.0,440.6" fill="none" stroke="#D1495B" stroke-width="2.3" stroke-linejoin="round" stroke-linecap="round"/>
<text x="70" y="728" font-family="Arial, sans-serif" font-size="12" fill="#5F6B73">Y-axis labels are thousand tonnes Li. Manufacturing scrap is allocated only to battery-producing countries.</text>
</svg>